<svg xmlns="http://www.w3.org/2000/svg" viewBox="0 0 1000 500" role="img" aria-labelledby="title desc"><title>Marwan Swedan</title><desc>Marwan Swedan monogram and wordmark</desc><defs><linearGradient id="p" x1="0" y1="0" x2="1" y2="1"><stop offset="0" stop-color="#fff"/><stop offset=".55" stop-color="#e9e2ff"/><stop offset="1" stop-color="#c084fc"/></linearGradient><linearGradient id="v" x1="0" y1="1" x2="1" y2="0"><stop offset="0" stop-color="#d946ef"/><stop offset=".5" stop-color="#8b5cf6"/><stop offset="1" stop-color="#6d28d9"/></linearGradient></defs><rect width="1000" height="500" rx="34" fill="#090611"/><g transform="translate(300 38)"><path d="M0 185V45L115 0l112 62-52 30-60-35v96L55 185z" fill="url(#p)"/><path d="M227 62 342 0v140l-57-34V82l-58 31-48-29z" fill="url(#v)"/><path d="M58 150v72l88 49 86-48v-66l-50-29v65l-36 20-40-22v-67z" fill="url(#v)"/><path d="M112 93 227 158l58-34v50l-58 34-115-65z" fill="url(#p)"/></g><text x="54" y="350" fill="#f8f5ff" font-family="Arial,Helvetica,sans-serif" font-size="52" font-weight="700" letter-spacing="9">MARWAN</text><text x="492" y="350" fill="url(#v)" font-family="Arial,Helvetica,sans-serif" font-size="52" font-weight="700" letter-spacing="9">SWEDAN</text><g fill="#c084fc"><rect x="70" y="402" width="75" height="3" rx="2"/><circle cx="384" cy="403" r="5"/><circle cx="532" cy="403" r="5"/><rect x="851" y="402" width="75" height="3" rx="2"/></g><text x="205" y="414" fill="#f8f5ff" font-family="Arial,Helvetica,sans-serif" font-size="17" letter-spacing="10">LEARN</text><text x="407" y="414" fill="#f8f5ff" font-family="Arial,Helvetica,sans-serif" font-size="17" letter-spacing="10">BUILD</text><text x="555" y="414" fill="#f8f5ff" font-family="Arial,Helvetica,sans-serif" font-size="17" letter-spacing="10">GROW</text></svg>